<?xml version="1.0" encoding="UTF-8"?>
<svg id="Layer_1" xmlns="http://www.w3.org/2000/svg" version="1.1" xmlns:xlink="http://www.w3.org/1999/xlink" viewBox="0 0 512 512">
  <!-- Generator: Adobe Illustrator 29.8.2, SVG Export Plug-In . SVG Version: 2.1.1 Build 3)  -->
  <defs>
    <style>
      .st0 {
        fill: #fff;
      }

      .st1 {
        fill: url(#linear-gradient);
      }
    </style>
    <linearGradient id="linear-gradient" x1="256" y1="1.35" x2="256" y2="513.35" gradientTransform="translate(0 513.35) scale(1 -1)" gradientUnits="userSpaceOnUse">
      <stop offset="0" stop-color="#1d4ed8"/>
      <stop offset="1" stop-color="#2563eb"/>
    </linearGradient>
  </defs>
  <rect class="st1" width="512" height="512" rx="85.35" ry="85.35"/>
  <g>
    <path class="st0" d="M168.34,93.18c43.21-.15,86.24-.46,129.45-.61,21.6,0,64.99.61,77.03,21.76,5.67,9.96.35,48.73.35,59.92,0,33.25,0,66.66-.89,99.92-.53,22.22,4.43,58.23-23.2,72.03-12.75,6.44-51.89,0-65.7,0-5.84,0-11.86,3.68-13.28,8.74-7.26,25.44-15.94,49.81-26.92,74.32,7.61-1.69,15.41-3.52,23.02-5.21-17.35-18.24-18.77-65.9-42.15-79.23-27.45-15.63-55.07,10.11-79.16-15.17-26.21-27.43-10.63-104.67-10.63-140.68,0-20.84-2.3-42.76,0-63.6,3.19-31.42,2.83-27.89,38.07-34.79,17.35-3.37,9.92-26.36-7.26-22.99-34.35,6.59-52.24,6.13-58.44,36.63-6.73,32.64.18,72.64.35,105.89,0,35.09-2.3,70.95.35,105.89,1.59,20.99,4.43,40.92,29.93,49.19,31.7,10.27,57.55-9.35,77.39,21.45,12.75,19.92,14.88,35.86,32.23,54.4,7.26,7.66,19.66,2.15,23.02-5.21,4.78-10.73,13.28-47.2,21.43-55.32,13.64-13.49,27.8-9.65,46.93-10.11,17.18-.46,38.96.92,51.36-12.57,12.04-13.03,8.68-38.62,9.39-53.33,1.42-36.63,1.95-73.25,1.95-109.88s18.42-101.45-31.7-121.37c-18.06-7.2-42.5-4.14-61.45-4.14-47.11,0-94.21.46-141.32.61-17.71,0-17.71,23.91,0,23.91h0l-.18-.46Z"/>
    <path class="st0" d="M355.87,184.37c0,9.04-5.49,17.47-16.65,25.44-6.55,4.75-16.65,9.96-30.28,15.78,5.49,8.28,8.15,15.63,8.15,22.22,0,13.79-10.27,23.91-30.81,30.5-14.7,4.75-31.7,7.05-51.36,7.05h-55.61l38.6-94.86h38.43l-32.76,80.15h5.49c12.4,0,23.02-1.23,31.7-3.68,12.75-3.83,19.13-9.96,19.13-18.39,0-2.76-1.42-5.98-4.25-9.81-2.83-3.83-4.25-6.59-4.25-8.28,0-.92,0-1.53.18-1.84,1.42-2.76,5.31-5.36,11.69-7.97,8.85-3.68,15.23-7.05,19.3-10.11,6.91-5.06,10.27-11.03,10.27-17.78,0-9.5-8.32-14.25-25.15-14.25h-125.02l16.47-23.29h124.67c16.29,0,28.69,1.84,36.83,5.67,10.09,4.75,15.05,12.41,15.05,23.45h.18Z"/>
  </g>
</svg>