<?xml version="1.0" encoding="UTF-8"?>
<svg id="Layer_1" xmlns="http://www.w3.org/2000/svg" version="1.1" xmlns:xlink="http://www.w3.org/1999/xlink" viewBox="0 0 512 512">
  <!-- Generator: Adobe Illustrator 29.6.1, SVG Export Plug-In . SVG Version: 2.1.1 Build 9)  -->
  <defs>
    <style>
      .st0, .st1 {
        fill: #fff;
      }

      .st1, .st2 {
        display: none;
      }

      .st2 {
        fill: url(#linear-gradient1);
      }

      .st3 {
        fill: url(#linear-gradient);
      }
    </style>
    <linearGradient id="linear-gradient" x1="256" y1="1078.65" x2="256" y2="566.65" gradientTransform="translate(0 -566.65)" gradientUnits="userSpaceOnUse">
      <stop offset="0" stop-color="#1d4ed8"/>
      <stop offset="1" stop-color="#2563eb"/>
    </linearGradient>
    <linearGradient id="linear-gradient1" x1="70.26" y1="348.66" x2="441.74" y2="348.66" gradientTransform="translate(0 514) scale(1 -1)" gradientUnits="userSpaceOnUse">
      <stop offset="0" stop-color="#1d4ed8"/>
      <stop offset="1" stop-color="#2563eb"/>
    </linearGradient>
  </defs>
  <rect class="st3" width="512" height="512" rx="85.35" ry="85.35"/>
  <path class="st1" d="M207.39,56.61c49.48-.18,46.42,12.42,95.9,12.25,24.74,0,74.42.7,88.21,24.92,6.49,11.41.41,55.8.41,68.62,0,38.08-93.28,39.56-94.3,77.64-.61,25.45,34.02,74.42,2.39,90.22-14.6,7.37,4.91,29.04-10.9,29.04-6.69,0-55.55,5.71-57.18,11.51-8.31,29.13,23.72,55.53,11.14,83.61,8.72-1.93,17.64-4.04,26.36-5.97-19.87-20.88-21.5-75.46-48.26-90.73-31.43-17.9-44.74,2.69-72.32-26.27-30.01-31.41,54.53-28.98,54.53-70.22,0-23.87-32.07,49.28-29.44,25.41,3.65-35.97-15.24-18.6,25.12-26.5,19.87-3.86,29.84-43.52,10.17-39.66-39.34,7.55-36.55,7.94-43.65,42.86-7.71,37.38,6.37-15.97,6.57,22.11,0,40.19-20.97-.58-17.92,39.43,1.83,24.04-52.5,38.32-23.3,47.8,36.3,11.76,56.78-2.32,79.49,32.95,14.6,22.81,17.03,41.06,36.91,62.3,8.31,8.77,22.51,2.46,26.36-5.97,5.48-12.28,17.31-52.34,24.54-63.35,46.58-70.95,25.08-29.52,53.16-71.34-34.65,2.39-26.96-2.36-12.76-17.81,13.79-14.92,0,0,.81-16.85,1.62-41.94,2.39-26.77,2.39-68.71s103.01-154.34,45.62-177.15c-20.68-8.25-48.67-4.74-70.37-4.74-53.94,0-3.22,8.45-57.16,8.63-20.28,0-90.13,31.67-69.85,31.67l3.14,7.43,14.19-33.12h0Z"/>
  <rect class="st2" x="70.26" y="24.47" width="371.48" height="281.74"/>
  <g>
    <path class="st0" d="M410.82,150.6c0,20.57-8.8,39.74-26.68,57.86-10.5,10.81-26.68,22.65-48.53,35.9,8.8,18.82,13.06,35.55,13.06,50.54,0,31.37-16.46,54.37-49.38,69.37-23.56,10.81-50.8,16.03-82.31,16.03h-89.12l61.87-215.76h61.59l-52.51,182.29h8.8c19.87,0,36.9-2.79,50.8-8.37,20.44-8.72,30.65-22.65,30.65-41.83,0-6.28-2.27-13.59-6.81-22.31-4.54-8.72-6.81-14.99-6.81-18.82,0-2.09,0-3.48.28-4.18,2.27-6.28,8.52-12.2,18.73-18.12,14.19-8.37,24.41-16.03,30.94-23.01,11.07-11.5,16.46-25.1,16.46-40.43,0-21.61-13.34-32.41-40.31-32.41H101.18l26.39-52.98h199.81c26.11,0,45.98,4.18,59.04,12.9,16.18,10.81,24.13,28.23,24.13,53.33h.28Z"/>
    <path class="st0" d="M184.07,371.41l40.48,51.2c5.3,6.7,13.88,6.7,19.18,0l43.53-55.07c2.26-2.86,3.54-6.47,3.88-10.2h-110.94c-.44,5.01.84,10.22,3.88,14.06h0Z"/>
  </g>
</svg>