<?xml version="1.0" encoding="UTF-8"?>
<svg id="Layer_1" xmlns="http://www.w3.org/2000/svg" version="1.1" xmlns:xlink="http://www.w3.org/1999/xlink" viewBox="0 0 512 512">
  <!-- Generator: Adobe Illustrator 29.8.2, SVG Export Plug-In . SVG Version: 2.1.1 Build 3)  -->
  <defs>
    <style>
      .st0, .st1 {
        fill: #fff;
      }

      .st1, .st2 {
        display: none;
      }

      .st2 {
        fill: url(#linear-gradient1);
      }

      .st3 {
        fill: url(#linear-gradient);
      }
    </style>
    <linearGradient id="linear-gradient" x1="256" y1="1.35" x2="256" y2="513.35" gradientTransform="translate(0 513.35) scale(1 -1)" gradientUnits="userSpaceOnUse">
      <stop offset="0" stop-color="#1d4ed8"/>
      <stop offset="1" stop-color="#2563eb"/>
    </linearGradient>
    <linearGradient id="linear-gradient1" x1="70.26" y1="165.34" x2="441.74" y2="165.34" gradientTransform="matrix(1,0,0,1,0,0)" xlink:href="#linear-gradient"/>
  </defs>
  <rect class="st3" width="512" height="512" rx="85.35" ry="85.35"/>
  <path class="st1" d="M207.39,56.61c49.48-.18,46.42,12.42,95.9,12.25,24.74,0,74.42.7,88.21,24.92,6.49,11.41.41,55.8.41,68.62,0,38.08-93.28,39.56-94.3,77.64-.61,25.45,34.02,74.42,2.39,90.22-14.6,7.37,4.91,29.04-10.9,29.04-6.69,0-55.55,5.71-57.18,11.51-8.31,29.13,23.72,55.53,11.14,83.61,8.72-1.93,17.64-4.04,26.36-5.97-19.87-20.88-21.5-75.46-48.26-90.73-31.43-17.9-44.74,2.69-72.32-26.27-30.01-31.41,54.53-28.98,54.53-70.22,0-23.87-32.07,49.28-29.44,25.41,3.65-35.97-15.24-18.6,25.12-26.5,19.87-3.86,29.84-43.52,10.17-39.66-39.34,7.55-36.55,7.94-43.65,42.86-7.71,37.38,6.37-15.97,6.57,22.11,0,40.19-20.97-.58-17.92,39.43,1.83,24.04-52.5,38.32-23.3,47.8,36.3,11.76,56.78-2.32,79.49,32.95,14.6,22.81,17.03,41.06,36.91,62.3,8.31,8.77,22.51,2.46,26.36-5.97,5.48-12.28,17.31-52.34,24.54-63.35,46.58-70.95,25.08-29.52,53.16-71.34-34.65,2.39-26.96-2.36-12.76-17.81,13.79-14.92,0,0,.81-16.85,1.62-41.94,2.39-26.77,2.39-68.71s103.01-154.34,45.62-177.15c-20.68-8.25-48.67-4.74-70.37-4.74-53.94,0-3.22,8.45-57.16,8.63-20.28,0-90.13,31.67-69.85,31.67l3.14,7.43,14.19-33.12Z"/>
  <rect class="st2" x="70.26" y="24.47" width="371.48" height="281.74"/>
  <g>
    <path class="st0" d="M461.37,135.4c0,24.97-10.68,48.24-32.39,70.24-12.75,13.12-32.39,27.5-58.92,43.58,10.68,22.85,15.85,43.16,15.85,61.36,0,38.08-19.98,66.01-59.95,84.21-28.6,13.12-61.67,19.46-99.92,19.46h-108.19l75.11-261.93h74.77l-63.74,221.3h10.68c24.12,0,44.79-3.39,61.67-10.16,24.81-10.58,37.21-27.5,37.21-50.78,0-7.62-2.76-16.5-8.27-27.08-5.51-10.58-8.27-18.2-8.27-22.85,0-2.54,0-4.23.34-5.08,2.76-7.62,10.34-14.81,22.74-22,17.23-10.16,29.63-19.46,37.56-27.93,13.44-13.96,19.98-30.47,19.98-49.08,0-26.23-16.19-39.35-48.93-39.35H85.47l32.04-64.32h242.56c31.7,0,55.82,5.08,71.67,15.66,19.64,13.12,29.29,34.27,29.29,64.74h.34Z"/>
    <path class="st0" d="M186.1,403.47l49.14,62.16c6.43,8.13,16.85,8.13,23.28,0l52.85-66.85c2.74-3.47,4.3-7.86,4.71-12.38h-134.68c-.54,6.08,1.02,12.41,4.71,17.07Z"/>
  </g>
</svg>